<svg width="100" height="100" viewBox="0 0 100 100" fill="none" xmlns="http://www.w3.org/2000/svg">
<path d="M82.8255 1.73021C82.8255 0.812271 83.5696 0.0681334 84.4876 0.0681334H98.338C99.2559 0.0681334 100 0.81227 100 1.73021V14.8193C100 15.7372 99.2559 16.4814 98.338 16.4814H84.4876C83.5696 16.4814 82.8255 15.7372 82.8255 14.8193V1.73021Z" fill="#F1C30F"/>
<path d="M0 77.1084C0 76.1905 0.744124 75.4463 1.66205 75.4463H15.5124C16.4304 75.4463 17.1745 76.1905 17.1745 77.1084V81.9247C17.1745 82.8426 17.9186 83.5868 18.8365 83.5868H43.6287C44.5467 83.5868 45.2908 84.3309 45.2908 85.2488V98.3379C45.2908 99.2559 44.5467 100 43.6287 100H1.66205C0.744122 100 0 99.2559 0 98.3379V77.1084Z" fill="#2E4156"/>
<path d="M0.138536 1.66208V65.7764C0.138536 66.6949 0.883474 67.4392 1.80192 67.4385L81.0928 67.375C82.0112 67.3742 82.7562 68.1186 82.7562 69.037V81.86C82.7562 82.778 82.012 83.5221 81.0941 83.5221H56.2326C55.3147 83.5221 54.5706 84.2663 54.5706 85.1842V98.2733C54.5706 99.1912 55.3147 99.9353 56.2326 99.9353H98.3379C99.2558 99.9353 99.9999 99.1912 99.9999 98.2733V27.2085C99.9999 26.2905 99.2558 25.5464 98.3378 25.5464H29.7091C28.7912 25.5464 28.0471 26.2905 28.0471 27.2085V44.6656C28.0471 45.5835 28.7912 46.3276 29.7091 46.3276H43.698C44.616 46.3276 45.3601 45.5835 45.3601 44.6656V43.6879C45.3601 42.7699 46.1042 42.0258 47.0221 42.0258H81.1634C82.0813 42.0258 82.8254 42.7699 82.8254 43.6879V49.3645C82.8254 50.2825 82.0813 51.0266 81.1634 51.0266H18.9058C17.9879 51.0266 17.2438 50.2825 17.2438 49.3645V18.1415C17.2438 17.2235 17.9879 16.4794 18.9058 16.4794H71.8836C72.8015 16.4794 73.5456 15.7353 73.5456 14.8173V1.66207C73.5456 0.744136 72.8015 0 71.8836 0H1.80058C0.882659 0 0.138536 0.744138 0.138536 1.66208Z" fill="#2E4156"/>
<path d="M82.8255 1.73021C82.8255 0.812271 83.5696 0.0681334 84.4876 0.0681334H98.338C99.2559 0.0681334 100 0.81227 100 1.73021V14.8193C100 15.7372 99.2559 16.4814 98.338 16.4814H84.4876C83.5696 16.4814 82.8255 15.7372 82.8255 14.8193V1.73021Z" stroke="#2E4156"/>
<path d="M0 77.1084C0 76.1905 0.744124 75.4463 1.66205 75.4463H15.5124C16.4304 75.4463 17.1745 76.1905 17.1745 77.1084V81.9247C17.1745 82.8426 17.9186 83.5868 18.8365 83.5868H43.6287C44.5467 83.5868 45.2908 84.3309 45.2908 85.2488V98.3379C45.2908 99.2559 44.5467 100 43.6287 100H1.66205C0.744122 100 0 99.2559 0 98.3379V77.1084Z" stroke="#2E4156"/>
<path d="M0.138536 1.66208V65.7764C0.138536 66.6949 0.883474 67.4392 1.80192 67.4385L81.0928 67.375C82.0112 67.3742 82.7562 68.1186 82.7562 69.037V81.86C82.7562 82.778 82.012 83.5221 81.0941 83.5221H56.2326C55.3147 83.5221 54.5706 84.2663 54.5706 85.1842V98.2733C54.5706 99.1912 55.3147 99.9353 56.2326 99.9353H98.3379C99.2558 99.9353 99.9999 99.1912 99.9999 98.2733V27.2085C99.9999 26.2905 99.2558 25.5464 98.3378 25.5464H29.7091C28.7912 25.5464 28.0471 26.2905 28.0471 27.2085V44.6656C28.0471 45.5835 28.7912 46.3276 29.7091 46.3276H43.698C44.616 46.3276 45.3601 45.5835 45.3601 44.6656V43.6879C45.3601 42.7699 46.1042 42.0258 47.0221 42.0258H81.1634C82.0813 42.0258 82.8254 42.7699 82.8254 43.6879V49.3645C82.8254 50.2825 82.0813 51.0266 81.1634 51.0266H18.9058C17.9879 51.0266 17.2438 50.2825 17.2438 49.3645V18.1415C17.2438 17.2235 17.9879 16.4794 18.9058 16.4794H71.8836C72.8015 16.4794 73.5456 15.7353 73.5456 14.8173V1.66207C73.5456 0.744136 72.8015 0 71.8836 0H1.80058C0.882659 0 0.138536 0.744138 0.138536 1.66208Z" stroke="#2E4156"/>
</svg>
