<svg width="145" height="44" viewBox="0 0 145 44" fill="none" xmlns="http://www.w3.org/2000/svg">
<path d="M68.6162 1.26179C68.6162 0.836015 68.949 0.490853 69.3596 0.490853H72.156C72.5665 0.490853 72.8993 0.836014 72.8993 1.26179V4.67446C72.8993 5.10024 72.5665 5.4454 72.156 5.4454H69.3596C68.949 5.4454 68.6162 5.10024 68.6162 4.67446V1.26179Z" fill="#F1C30F"/>
<path d="M35.1416 0.761552C35.1416 0.357647 35.4573 0.0302167 35.8468 0.0302167H41.7233C42.1128 0.0302167 42.4285 0.357647 42.4285 0.761552V6.52092C42.4285 6.92483 42.1128 7.25226 41.7233 7.25226H35.8468C35.4573 7.25226 35.1416 6.92483 35.1416 6.52092V0.761552Z" fill="#F1C30F"/>
<path d="M0 33.9274C0 33.5235 0.315721 33.1961 0.705183 33.1961H6.58171C6.97117 33.1961 7.28689 33.5235 7.28689 33.9274V36.0466C7.28689 36.4505 7.60261 36.778 7.99207 36.778H18.5111C18.9005 36.778 19.2162 37.1054 19.2162 37.5093V43.2687C19.2162 43.6726 18.9005 44 18.5111 44H0.705182C0.31572 44 0 43.6726 0 43.2687V33.9274Z" fill="white"/>
<path d="M0.0587781 0.731334V28.9425C0.0587781 29.3466 0.374845 29.6742 0.764527 29.6738L34.4065 29.6459C34.7962 29.6456 35.1123 29.9731 35.1123 30.3772V36.0195C35.1123 36.4234 34.7965 36.7509 34.4071 36.7509H23.8587C23.4692 36.7509 23.1535 37.0783 23.1535 37.4822V43.2416C23.1535 43.6455 23.4692 43.9729 23.8587 43.9729H41.7233C42.1128 43.9729 42.4285 43.6455 42.4285 43.2416V11.9721C42.4285 11.5682 42.1128 11.2408 41.7233 11.2408H12.6052C12.2157 11.2408 11.9 11.5682 11.9 11.9721V19.6535C11.9 20.0574 12.2157 20.3848 12.6052 20.3848H18.5405C18.9299 20.3848 19.2456 20.0574 19.2456 19.6535V19.2233C19.2456 18.8193 19.5614 18.4919 19.9508 18.4919H34.4365C34.8259 18.4919 35.1416 18.8193 35.1416 19.2233V21.7211C35.1416 22.125 34.8259 22.4524 34.4365 22.4524H8.02147C7.63201 22.4524 7.31629 22.125 7.31629 21.7211V7.9825C7.31629 7.57859 7.63201 7.25116 8.02147 7.25116H30.4992C30.8886 7.25116 31.2044 6.92373 31.2044 6.51983V0.731336C31.2044 0.32743 30.8886 0 30.4992 0H0.763961C0.374499 0 0.0587781 0.327429 0.0587781 0.731334Z" fill="white"/>
<path d="M56.3046 0.468023C58.1413 0.468023 59.7535 0.796076 61.1412 1.45218C62.5289 2.10829 63.7126 3.08186 64.6922 4.37291L62.3351 7.1984C61.4984 6.09783 60.58 5.29357 59.58 4.78562C58.6004 4.2565 57.4576 3.99195 56.1515 3.99195C55.2944 3.99195 54.5801 4.10835 54.0087 4.34116C53.4577 4.57397 53.0495 4.88086 52.7842 5.26183C52.5393 5.64279 52.4169 6.06608 52.4169 6.53171C52.4169 7.10316 52.6311 7.58994 53.0597 7.99207C53.4883 8.37304 54.223 8.69051 55.2638 8.94448L59.029 9.8334C61.029 10.299 62.4575 10.9975 63.3146 11.9287C64.1922 12.8388 64.631 14.024 64.631 15.4844C64.631 16.8601 64.284 18.0453 63.5902 19.04C62.8963 20.0136 61.9269 20.765 60.682 21.2941C59.4372 21.802 58.0086 22.056 56.3964 22.056C54.9882 22.056 53.6923 21.8867 52.5087 21.5481C51.3454 21.1883 50.3046 20.7015 49.3863 20.0877C48.4679 19.4739 47.7026 18.7649 47.0904 17.9606L49.4781 15.0082C49.9475 15.6854 50.5291 16.2886 51.223 16.8178C51.9169 17.3469 52.7026 17.7702 53.5801 18.0876C54.4781 18.3839 55.4168 18.5321 56.3964 18.5321C57.2331 18.5321 57.9372 18.4369 58.5086 18.2464C59.1004 18.0347 59.5392 17.749 59.8249 17.3892C60.131 17.0082 60.2841 16.5532 60.2841 16.0241C60.2841 15.4738 60.1004 15.0082 59.7331 14.6272C59.3861 14.2251 58.7331 13.9182 57.7739 13.7065L53.6719 12.7541C52.4883 12.4578 51.4679 12.0769 50.6108 11.6112C49.774 11.1244 49.1312 10.5107 48.6822 9.76991C48.2537 9.00798 48.0394 8.10848 48.0394 7.07141C48.0394 5.82269 48.3659 4.70096 49.019 3.70622C49.672 2.71148 50.6108 1.92839 51.8352 1.35694C53.0801 0.764329 54.5699 0.468023 56.3046 0.468023Z" fill="white"/>
<path d="M72.8519 6.53171V21.7385H68.6275V6.53171H72.8519Z" fill="white"/>
<path d="M86.3997 22.056C84.5426 22.056 82.91 21.6327 81.5019 20.7861C80.1141 19.9395 79.0325 18.712 78.257 17.1035C77.4815 15.495 77.0938 13.5584 77.0938 11.2938C77.0938 9.05031 77.5019 7.12432 78.3182 5.5158C79.1346 3.88612 80.2876 2.63741 81.7774 1.76965C83.2876 0.901899 85.0324 0.468023 87.012 0.468023C89.1956 0.468023 90.9609 0.891317 92.3078 1.7379C93.6547 2.56333 94.7262 3.85437 95.5221 5.61104L91.6038 7.35713C91.2772 6.2354 90.716 5.40998 89.9201 4.88086C89.1446 4.33058 88.1854 4.05544 87.0426 4.05544C85.8998 4.05544 84.91 4.34116 84.0732 4.91261C83.2365 5.46289 82.5937 6.27773 82.1447 7.35713C81.6957 8.41537 81.4713 9.717 81.4713 11.262C81.4713 12.8494 81.6855 14.1933 82.1141 15.2939C82.5427 16.3733 83.1753 17.1881 84.012 17.7384C84.8692 18.2675 85.9202 18.5321 87.165 18.5321C87.8385 18.5321 88.4609 18.4474 89.0324 18.2781C89.6242 18.1088 90.1344 17.8548 90.563 17.5162C90.9915 17.1776 91.3282 16.7437 91.5731 16.2146C91.818 15.6854 91.9405 15.0717 91.9405 14.3732V13.897H86.6446V10.6906H95.5833V21.7385H92.6139L92.3078 17.167L93.0425 17.7067C92.5935 19.1035 91.7976 20.1829 90.6548 20.9449C89.5323 21.6856 88.114 22.056 86.3997 22.056Z" fill="white"/>
<path d="M122.205 0.785493V21.7385H118.379V10.8176L118.593 4.69038H118.532L112.93 21.7385H109.47L103.899 4.69038H103.838L104.052 10.8176V21.7385H100.226V0.785493H106.348L109.991 12.2144L111.277 16.9447H111.338L112.654 12.2462L116.266 0.785493H122.205Z" fill="white"/>
<path d="M145 21.7385H140.623L138.939 16.6273H131.194L129.51 21.7385H125.194L132.572 0.785493H137.623L145 21.7385ZM132.143 13.3891H137.99L135.051 4.24592L132.143 13.3891Z" fill="white"/>
<path d="M60.3333 29.3128V37.699C60.3333 39.801 59.7914 41.3775 58.7076 42.4285C57.6238 43.465 56.0051 43.9832 53.8516 43.9832C51.684 43.9832 50.0583 43.465 48.9745 42.4285C47.8907 41.3775 47.3488 39.801 47.3488 37.699V29.3128H51.6769V37.9398C51.6769 38.8157 51.8599 39.4726 52.2259 39.9105C52.5918 40.3484 53.1337 40.5674 53.8516 40.5674C54.5694 40.5674 55.1113 40.3484 55.4773 39.9105C55.8432 39.4726 56.0262 38.8157 56.0262 37.9398V29.3128H60.3333Z" fill="white"/>
<path d="M69.0306 29.3128C71.2122 29.3128 72.8731 29.9405 74.0132 31.1959C75.1534 32.4512 75.7234 34.2321 75.7234 36.5385C75.7234 38.8303 75.1534 40.6112 74.0132 41.8811C72.8731 43.1365 71.2122 43.7642 69.0306 43.7642H62.6333V29.3128H69.0306ZM68.5027 40.5017C69.5443 40.5017 70.2692 40.1805 70.6774 39.5383C71.0856 38.8814 71.2897 37.8815 71.2897 36.5385C71.2897 35.1955 71.0856 34.2029 70.6774 33.5606C70.2692 32.9037 69.5443 32.5753 68.5027 32.5753H66.9404V40.5017H68.5027Z" fill="white"/>
<path d="M90.4478 43.7642H86.0141L85.2329 40.7644H80.9891L80.1869 43.7642H75.8798L80.5669 29.3128H85.7396L90.4478 43.7642ZM81.707 37.8742H84.5361L83.1216 32.4877L81.707 37.8742Z" fill="white"/>
<path d="M102.175 29.3128L97.2975 38.6405V43.7642H92.9693V38.6405L88.0711 29.3128H92.4415L94.1305 32.9256L95.1651 35.4437L96.1785 32.9256L97.8887 29.3128H102.175Z" fill="white"/>
<path d="M114.386 43.7642H109.952L109.171 40.7644H104.927L104.125 43.7642H99.8176L104.505 29.3128H109.677L114.386 43.7642ZM105.645 37.8742H108.474L107.059 32.4877L105.645 37.8742Z" fill="white"/>
<path d="M128.734 29.3128V43.7642H124.005L120.204 36.6042L119.317 34.6554H119.275L119.36 37.5019V43.7642H115.602V29.3128H120.31L124.11 36.4728L125.018 38.4216H125.039L124.955 35.5751V29.3128H128.734Z" fill="white"/>
<path d="M144.529 43.7642H140.096L139.315 40.7644H135.071L134.268 43.7642H129.961L134.649 29.3128H139.821L144.529 43.7642ZM135.789 37.8742H138.618L137.203 32.4877L135.789 37.8742Z" fill="white"/>
</svg>
