<svg width="345" height="102" viewBox="0 0 345 102" fill="none" xmlns="http://www.w3.org/2000/svg">
<rect x="163.786" y="2.12109" width="10.1614" height="11.3339" fill="#F1C30F"/>
<rect x="84.3704" y="1.07031" width="17.2875" height="16.521" fill="#F1C30F"/>
<path d="M1 85.1314L1 76.9375H18.2875V85.1314H46.5889V101.652H1L1 85.1314Z" fill="white"/>
<path d="M1.1394 1L1.1394 68.8825L84.3008 68.8159V85.0704H55.9297V101.591H101.658V26.7141L29.2316 26.7141L29.2316 47.6318H46.6586V43.3017L84.3705 43.3017V52.3616L18.3572 52.3616L18.3572 17.5876L75.0296 17.5876V1L1.1394 1Z" fill="white" stroke="white" stroke-width="0.450413"/>
<path d="M134.578 2.07031C138.935 2.07031 142.76 2.82076 146.052 4.32165C149.345 5.82254 152.153 8.04967 154.477 11.003L148.885 17.4666C146.9 14.9489 144.721 13.1091 142.349 11.9471C140.025 10.7368 137.313 10.1316 134.215 10.1316C132.181 10.1316 130.487 10.3978 129.131 10.9304C127.824 11.463 126.855 12.165 126.226 13.0365C125.645 13.908 125.355 14.8763 125.355 15.9415C125.355 17.2487 125.863 18.3622 126.88 19.2822C127.896 20.1536 129.639 20.8799 132.109 21.4609L141.041 23.4943C145.786 24.5595 149.175 26.1572 151.209 28.2875C153.291 30.3694 154.331 33.0807 154.331 36.4214C154.331 39.5684 153.508 42.2797 151.862 44.5552C150.216 46.7824 147.916 48.5011 144.963 49.7115C142.01 50.8735 138.62 51.4545 134.796 51.4545C131.455 51.4545 128.381 51.0672 125.572 50.2925C122.813 49.4694 120.344 48.3559 118.165 46.9518C115.986 45.5478 114.17 43.9258 112.718 42.086L118.383 35.332C119.496 36.8813 120.876 38.2612 122.522 39.4716C124.168 40.682 126.032 41.6503 128.114 42.3765C130.245 43.0543 132.472 43.3932 134.796 43.3932C136.781 43.3932 138.451 43.1754 139.807 42.7396C141.211 42.2555 142.252 41.6019 142.93 40.7788C143.656 39.9073 144.019 38.8664 144.019 37.656C144.019 36.3972 143.583 35.332 142.712 34.4605C141.889 33.5406 140.339 32.8386 138.064 32.3544L128.332 30.1757C125.524 29.4979 123.103 28.6264 121.07 27.5613C119.085 26.4477 117.56 25.0436 116.494 23.3491C115.478 21.6061 114.969 19.5484 114.969 17.1761C114.969 14.3195 115.744 11.7535 117.293 9.47794C118.843 7.20239 121.07 5.41101 123.975 4.10378C126.928 2.74813 130.462 2.07031 134.578 2.07031Z" fill="white"/>
<path d="M173.835 15.9415V50.7283H163.813V15.9415H173.835Z" fill="white"/>
<path d="M205.976 51.4545C201.57 51.4545 197.697 50.4862 194.356 48.5495C191.064 46.6129 188.498 43.8048 186.658 40.1252C184.818 36.4456 183.898 32.0155 183.898 26.835C183.898 21.7029 184.867 17.2971 186.803 13.6175C188.74 9.88947 191.475 7.03294 195.01 5.04789C198.593 3.06284 202.732 2.07031 207.428 2.07031C212.609 2.07031 216.797 3.03863 219.992 4.97526C223.188 6.86348 225.73 9.81685 227.618 13.8354L218.322 17.8297C217.547 15.2636 216.216 13.3754 214.328 12.165C212.488 10.9062 210.212 10.2768 207.501 10.2768C204.79 10.2768 202.442 10.9304 200.457 12.2376C198.472 13.4965 196.946 15.3605 195.881 17.8297C194.816 20.2505 194.284 23.228 194.284 26.7624C194.284 30.3936 194.792 33.468 195.809 35.9856C196.825 38.4548 198.326 40.3188 200.311 41.5777C202.345 42.7881 204.838 43.3932 207.792 43.3932C209.389 43.3932 210.866 43.1996 212.222 42.8123C213.626 42.4249 214.836 41.8439 215.853 41.0693C216.87 40.2946 217.668 39.3021 218.249 38.0917C218.83 36.8813 219.121 35.4773 219.121 33.8795V32.7902H206.557V25.4552H227.763V50.7283H220.719L219.992 40.2704L221.735 41.505C220.67 44.7005 218.782 47.1697 216.071 48.9127C213.408 50.6072 210.043 51.4545 205.976 51.4545Z" fill="white"/>
<path d="M290.921 2.79655V50.7283H281.843V25.7457L282.351 11.7293H282.206L268.916 50.7283H260.709L247.492 11.7293H247.347L247.855 25.7457V50.7283H238.777V2.79655H253.302L261.944 28.9411L264.994 39.7621H265.139L268.262 29.0137L276.832 2.79655H290.921Z" fill="white"/>
<path d="M345 50.7283H334.615L330.621 39.0358H312.247L308.252 50.7283H298.012L315.515 2.79655H327.498L345 50.7283ZM314.498 31.6282H328.369L321.397 10.7125L314.498 31.6282Z" fill="white"/>
<path d="M143.805 68V87.1841C143.805 91.9926 142.519 95.599 139.948 98.0033C137.377 100.374 133.536 101.56 128.427 101.56C123.285 101.56 119.428 100.374 116.857 98.0033C114.286 95.599 113 91.9926 113 87.1841V68H123.268V87.7351C123.268 89.7386 123.702 91.2413 124.571 92.2431C125.439 93.2448 126.724 93.7457 128.427 93.7457C130.13 93.7457 131.416 93.2448 132.284 92.2431C133.152 91.2413 133.587 89.7386 133.587 87.7351V68H143.805Z" fill="white"/>
<path d="M164.438 68C169.614 68 173.554 69.4359 176.259 72.3077C178.964 75.1794 180.316 79.2533 180.316 84.5294C180.316 89.772 178.964 93.8459 176.259 96.7511C173.554 99.6228 169.614 101.059 164.438 101.059H149.261V68H164.438ZM163.186 93.5955C165.657 93.5955 167.377 92.8608 168.345 91.3915C169.314 89.8889 169.798 87.6015 169.798 84.5294C169.798 81.4572 169.314 79.1865 168.345 77.7173C167.377 76.2146 165.657 75.4633 163.186 75.4633H159.479V93.5955H163.186Z" fill="white"/>
<path d="M215.249 101.059H204.73L202.877 94.1965H192.809L190.906 101.059H180.687L191.807 68H204.079L215.249 101.059ZM194.512 87.5848H201.224L197.868 75.2629L194.512 87.5848Z" fill="white"/>
<path d="M243.07 68L231.499 89.3379V101.059H221.231V89.3379L209.61 68H219.979L223.986 76.2647L226.44 82.0249L228.844 76.2647L232.902 68H243.07Z" fill="white"/>
<path d="M272.039 101.059H261.52L259.667 94.1965H249.599L247.696 101.059H237.478L248.597 68H260.869L272.039 101.059ZM251.302 87.5848H258.014L254.658 75.2629L251.302 87.5848Z" fill="white"/>
<path d="M306.079 68V101.059H294.859L285.843 84.6796L283.74 80.2217H283.639L283.84 86.7333V101.059H274.924V68H286.094L295.11 84.3791L297.264 88.837H297.314L297.113 82.3254V68H306.079Z" fill="white"/>
<path d="M343.553 101.059H333.034L331.181 94.1965H321.113L319.21 101.059H308.991L320.111 68H332.383L343.553 101.059ZM322.816 87.5848H329.528L326.172 75.2629L322.816 87.5848Z" fill="white"/>
</svg>
