<svg width="439" height="440" viewBox="0 0 439 440" fill="none" xmlns="http://www.w3.org/2000/svg">
<rect x="363.08" y="1.6002" width="74.6177" height="71.2821" rx="6.97645" fill="#F1C30F" stroke="white" stroke-width="0.606648"/>
<path d="M7.2793 331.753H67.9443C71.7972 331.753 74.9206 334.876 74.9209 338.729V359.824C74.921 364.012 78.316 367.407 82.5039 367.407H191.094C194.947 367.407 198.07 370.531 198.07 374.384V431.713C198.07 435.566 194.947 438.689 191.094 438.689H7.2793C3.42659 438.689 0.30381 435.566 0.303711 431.713L0.303711 338.729C0.303967 334.876 3.42669 331.753 7.2793 331.753Z" fill="white" stroke="white" stroke-width="0.606648"/>
<path d="M0.606445 8.27978L0.606445 289.096C0.606445 293.119 3.86928 296.379 7.89206 296.376L355.186 296.098C359.209 296.094 362.472 299.355 362.472 303.377V359.541C362.472 363.562 359.213 366.821 355.192 366.821H246.299C242.278 366.821 239.019 370.08 239.019 374.101V431.43C239.019 435.451 242.278 438.71 246.299 438.71H430.72C434.74 438.71 437.999 435.45 437.999 431.43V120.171C437.999 116.151 434.74 112.891 430.72 112.891L130.126 112.891C126.105 112.891 122.846 116.151 122.846 120.171L122.846 196.632C122.846 200.653 126.105 203.912 130.126 203.912H191.397C195.418 203.912 198.677 200.653 198.677 196.632V192.35C198.677 188.329 201.936 185.07 205.957 185.07L355.495 185.07C359.516 185.07 362.775 188.329 362.775 192.35V217.213C362.775 221.234 359.516 224.493 355.495 224.493L82.8072 224.493C78.7867 224.493 75.5274 221.234 75.5274 217.213L75.5274 80.4584C75.5274 76.4379 78.7867 73.1786 82.8072 73.1786L314.85 73.1786C318.87 73.1786 322.13 69.9194 322.13 65.8989V8.27977C322.13 4.25926 318.87 1 314.85 1L7.88622 1C3.86571 1 0.606445 4.25927 0.606445 8.27978Z" fill="white" stroke="white" stroke-width="0.606648"/>
</svg>
